<?xml version="1.0" standalone="no"?>
<!DOCTYPE svg PUBLIC "-//W3C//DTD SVG 20010904//EN"
 "http://www.w3.org/TR/2001/REC-SVG-20010904/DTD/svg10.dtd">
<svg version="1.0" xmlns="http://www.w3.org/2000/svg"
 width="600.000000pt" height="480.000000pt" viewBox="0 0 600.000000 480.000000"
 preserveAspectRatio="xMidYMid meet">

<g transform="translate(0.000000,480.000000) scale(0.100000,-0.100000)"
fill="#ffffffff" stroke="none">
<path d="M2918 4043 c-22 -24 -25 -35 -44 -200 -6 -51 -8 -53 -43 -60 -20 -4
-41 -6 -47 -5 -5 1 -19 -6 -30 -16 -21 -20 -100 -35 -174 -35 -25 0 -111 -4
-193 -10 l-147 -10 -36 26 c-31 21 -40 24 -61 14 -16 -7 -22 -16 -17 -26 28
-67 29 -59 -50 -218 -41 -83 -83 -156 -92 -161 -9 -5 -14 -14 -10 -21 10 -16
36 -14 36 3 0 24 152 328 160 319 4 -4 45 -80 90 -168 45 -88 87 -160 93 -160
18 0 19 23 0 29 -10 3 -23 16 -29 28 -6 13 -41 83 -78 156 -40 78 -65 137 -59
143 5 5 42 4 88 -2 44 -6 189 -14 323 -17 205 -6 241 -5 237 7 -5 11 -3 12 10
1 8 -7 13 -21 10 -30 -3 -9 6 -41 20 -71 30 -66 31 -97 4 -143 -48 -83 -51
-109 -60 -526 -6 -348 -17 -536 -35 -592 -3 -10 3 -24 15 -34 19 -17 19 -17
-5 -36 -29 -23 -30 -35 -6 -61 16 -19 16 -20 -5 -8 -14 7 -24 24 -27 44 -48
328 -99 699 -99 722 0 69 15 229 24 252 12 33 11 104 -2 123 -8 12 -12 12 -16
2 -3 -7 -16 -26 -30 -43 -37 -44 -45 -96 -33 -209 6 -53 10 -123 8 -156 -2
-47 2 -66 19 -89 16 -22 23 -51 27 -110 l6 -80 -15 40 c-9 22 -22 46 -29 54
-11 10 -102 48 -123 51 -11 1 2 -34 26 -73 30 -47 90 -87 131 -87 11 0 20 -4
20 -8 0 -4 9 -74 20 -155 12 -81 18 -152 15 -157 -3 -6 -23 -7 -44 -4 -24 4
-51 0 -76 -11 l-40 -16 35 -22 c25 -16 50 -22 88 -21 l53 0 -3 -45 -3 -45 64
-13 c98 -20 156 -64 197 -148 14 -27 18 -41 9 -31 -8 11 -15 16 -15 12 0 -4
-12 1 -27 12 -39 26 -79 40 -143 51 -45 7 -49 9 -19 10 47 1 130 -24 163 -50
14 -11 26 -17 26 -12 0 19 -60 80 -96 98 -22 11 -43 25 -49 32 -5 6 -21 12
-35 13 -40 3 -47 -2 -15 -10 30 -8 30 -8 -8 -9 -54 -1 -77 -16 -77 -50 0 -39
18 -51 95 -62 82 -11 153 -46 194 -96 30 -36 32 -37 43 -18 35 61 116 108 203
120 68 10 85 21 85 53 0 35 -16 52 -50 53 -23 1 -23 1 6 10 42 12 52 26 56 79
3 43 5 45 31 42 25 -3 117 30 117 42 0 15 -66 38 -97 33 -18 -3 -33 -1 -33 4
0 12 44 29 78 29 37 1 67 19 97 60 35 47 32 54 -20 47 -62 -9 -100 -30 -130
-74 -14 -21 -25 -35 -25 -32 0 3 13 127 29 275 52 474 54 495 42 507 -23 23
-21 35 -86 -578 -35 -333 -34 -325 -56 -325 -11 0 -19 -4 -19 -8 0 -5 -27 -17
-60 -27 -34 -10 -57 -22 -53 -28 4 -6 0 -8 -10 -4 -9 3 -16 3 -15 -1 1 -4 -19
-28 -44 -54 -27 -27 -49 -60 -53 -80 l-8 -33 -14 47 c-15 53 -76 123 -99 114
-20 -8 -45 4 -37 17 4 6 0 8 -10 4 -10 -3 -17 -2 -17 3 0 23 63 9 97 -20 18
-16 38 -30 43 -30 6 0 9 -3 8 -7 -2 -5 4 -18 12 -30 16 -21 16 -21 51 18 20
21 34 39 32 39 -2 0 1 9 7 20 6 12 21 20 36 20 31 0 89 24 99 41 5 8 -2 21
-20 35 -24 19 -26 24 -13 29 26 10 28 27 18 142 -5 58 -14 269 -20 467 -12
397 -21 466 -71 552 l-31 55 17 47 c40 116 40 110 20 132 -23 25 -66 26 -96 1
-24 -19 -24 -19 -58 1 -29 18 -38 20 -64 10 -36 -14 -32 -16 -52 31 l-15 38
27 -6 c21 -5 18 -2 -12 13 l-40 18 50 13 c62 15 95 36 95 59 0 14 8 18 40 17
33 0 42 -4 46 -22 4 -13 21 -28 45 -37 39 -16 53 -48 27 -60 -7 -3 -3 -3 10 0
22 5 23 4 16 -32 -5 -26 -4 -35 5 -30 6 4 9 2 6 -6 -7 -19 351 -13 523 8 73 9
136 14 139 10 9 -9 -146 -308 -170 -327 -31 -25 -5 -67 62 -101 73 -37 163
-39 237 -4 91 42 81 46 -115 46 -100 0 -181 2 -181 5 0 8 159 319 172 338 12
15 22 -1 89 -135 42 -84 79 -161 83 -171 7 -20 37 -20 44 1 2 7 -5 16 -18 19
-16 4 -41 45 -96 156 -44 87 -74 158 -71 168 3 11 1 19 -5 19 -6 0 0 9 13 20
21 17 22 21 9 30 -23 15 -51 12 -73 -7 -21 -20 -41 -20 -297 -11 -176 7 -239
16 -263 38 -10 10 -28 18 -40 18 -12 0 -34 5 -50 11 -22 8 -26 15 -22 33 3 13
-1 43 -10 67 -8 24 -15 63 -15 88 0 63 -30 91 -98 91 -41 0 -55 -5 -74 -25z
m86 -58 c3 -8 17 -20 31 -27 33 -15 32 -40 -4 -80 -25 -29 -31 -31 -53 -21
-31 14 -68 85 -48 91 8 3 23 15 34 27 26 28 32 29 40 10z m833 -260 c0 -8 -6
-15 -13 -15 -8 0 -11 6 -8 15 4 8 9 15 13 15 4 0 8 -7 8 -15z m-953 -1075 c15
-144 13 -246 -4 -278 -4 -8 -10 44 -13 115 -8 143 -9 329 -3 322 2 -2 11 -74
20 -159z m256 58 c0 -125 -13 -347 -20 -343 -15 10 -18 116 -7 258 11 149 27
198 27 85z m-520 -60 c0 -13 0 -14 -29 32 l-23 35 26 -28 c14 -15 26 -33 26
-39z m-59 35 c13 -16 12 -17 -3 -4 -17 13 -22 21 -14 21 2 0 10 -8 17 -17z
m894 -318 c-16 -14 -34 -25 -40 -25 -9 0 55 49 65 49 3 0 -8 -11 -25 -24z
m-765 -125 c11 -7 -3 -10 -47 -10 -34 0 -65 5 -68 10 -8 13 95 13 115 0z m755
0 c-3 -5 -31 -10 -61 -10 -34 0 -53 4 -49 10 3 6 31 10 61 10 34 0 53 -4 49
-10z m-508 -16 c-3 -3 -12 -4 -19 -1 -8 3 -5 6 6 6 11 1 17 -2 13 -5z m247
-148 c-3 -8 -18 -19 -33 -26 -15 -6 -48 -32 -72 -56 l-44 -46 49 26 c27 14 56
26 65 26 9 0 -2 -9 -25 -19 -22 -10 -57 -33 -77 -51 l-37 -32 10 28 c29 74 92
136 167 163 1 1 0 -5 -3 -13z m19 -73 c-7 -2 -19 -2 -25 0 -7 3 -2 5 12 5 14
0 19 -2 13 -5z"/>
<path d="M2637 3562 c-21 -22 -32 -49 -44 -108 -19 -99 -32 -125 -33 -66 0 49
-12 54 -30 13 -9 -23 -9 -38 0 -65 6 -20 16 -36 21 -36 5 0 17 17 28 38 11 20
40 57 66 82 46 45 85 98 98 133 10 27 -91 -60 -114 -98 -30 -49 -22 -13 12 53
37 71 35 95 -4 54z"/>
<path d="M3350 3562 c0 -18 5 -32 11 -32 5 0 7 -4 4 -10 -3 -5 -1 -20 6 -32 8
-14 -8 -5 -45 26 -31 27 -56 45 -56 41 0 -22 93 -144 128 -169 23 -16 42 -36
42 -45 0 -29 17 -46 33 -33 7 7 17 9 20 5 13 -12 7 48 -8 83 -14 34 -35 39
-35 8 0 -8 -4 -12 -10 -9 -5 3 -10 22 -10 42 0 41 -31 111 -60 138 -20 18 -20
17 -20 -13z m117 -184 c-3 -8 -6 -5 -6 6 -1 11 2 17 5 13 3 -3 4 -12 1 -19z"/>
<path d="M3350 3403 c0 -6 16 -35 36 -64 33 -48 34 -51 9 -29 l-27 25 16 -40
c21 -50 40 -71 76 -84 l28 -9 -20 46 c-34 76 -118 187 -118 155z"/>
<path d="M2617 3358 c-19 -24 -49 -71 -66 -106 l-32 -63 42 31 c23 17 48 38
54 48 16 23 48 122 42 128 -3 3 -20 -14 -40 -38z"/>
<path d="M2450 3286 c15 -40 34 -66 47 -66 22 0 14 39 -12 65 -32 33 -47 33
-35 1z"/>
<path d="M3537 3282 c-25 -26 -37 -72 -19 -72 11 0 48 50 56 78 10 30 -5 28
-37 -6z"/>
<path d="M2176 3290 c-193 -5 -197 -8 -105 -49 64 -29 159 -28 225 3 45 21 74
43 63 49 -2 1 -85 0 -183 -3z"/>
<path d="M2440 3133 c0 -31 37 -119 46 -110 9 9 -7 108 -16 102 -4 -3 -7 3 -6
12 0 9 -5 18 -11 20 -9 3 -13 -5 -13 -24z"/>
<path d="M2526 3127 c-20 -26 -26 -46 -26 -82 0 -42 2 -46 16 -34 20 17 50 75
59 117 9 44 -15 43 -49 -1z"/>
<path d="M3430 3150 c0 -25 44 -101 75 -129 l34 -31 22 32 c14 19 24 51 27 85
5 62 -8 69 -39 21 -15 -25 -19 -43 -15 -76 7 -54 -10 -47 -19 8 -7 43 -48 100
-71 100 -8 0 -14 -5 -14 -10z m131 -47 c-12 -20 -14 -14 -5 12 4 9 9 14 11 11
3 -2 0 -13 -6 -23z m-14 -45 c-3 -8 -6 -5 -6 6 -1 11 2 17 5 13 3 -3 4 -12 1
-19z"/>
<path d="M2525 2990 c-24 -46 -19 -110 10 -150 14 -19 25 -41 26 -49 1 -23 28
80 29 108 0 28 -32 121 -42 121 -4 0 -14 -13 -23 -30z m22 -72 c-2 -13 -4 -3
-4 22 0 25 2 35 4 23 2 -13 2 -33 0 -45z"/>
<path d="M3460 2984 c-11 -33 -10 -80 5 -149 5 -23 -3 -49 -34 -115 -64 -132
-54 -143 45 -47 65 64 87 110 42 86 -13 -6 -38 -25 -56 -43 -32 -30 -33 -30
-24 -6 16 39 44 92 69 129 13 19 23 49 23 68 0 35 -34 113 -49 113 -5 0 -15
-16 -21 -36z"/>
<path d="M2450 2840 c10 -19 59 -50 79 -50 19 0 -1 30 -34 50 -43 26 -59 26
-45 0z"/>
<path d="M3525 2829 c-20 -18 -34 -33 -32 -36 8 -7 60 18 89 42 l30 25 -26 0
c-14 0 -41 -14 -61 -31z"/>
<path d="M2504 2393 c25 -49 72 -83 115 -83 20 0 47 -7 59 -16 30 -21 28 -5
-8 44 -35 48 -72 70 -136 79 l-46 6 16 -30z m116 -49 c0 -2 -9 0 -20 6 -11 6
-20 13 -20 16 0 2 9 0 20 -6 11 -6 20 -13 20 -16z"/>
<path d="M2769 1551 c-36 -28 -41 -54 -18 -98 15 -28 16 -39 7 -42 -7 -2 -25
-17 -40 -32 -45 -44 -35 -105 22 -134 41 -21 72 -19 114 10 44 30 48 30 71 5
25 -28 76 -35 113 -16 43 22 50 37 13 30 -24 -5 -36 0 -67 29 l-38 35 37 48
c21 27 53 57 70 66 l32 17 -54 1 c-46 0 -52 -2 -41 -15 13 -15 10 -22 -28 -73
l-25 -33 -39 38 c-21 20 -38 40 -38 44 0 4 16 16 35 28 27 16 35 27 35 49 0
40 -21 55 -83 60 -42 3 -57 0 -78 -17z m89 -3 c17 -17 15 -60 -3 -84 -15 -19
-15 -19 -30 1 -20 25 -29 60 -21 80 7 18 37 20 54 3z m-24 -197 c27 -27 45
-54 42 -60 -4 -6 -22 -11 -41 -11 -52 0 -88 55 -69 104 9 24 15 21 68 -33z"/>
<path d="M472 1508 c-6 -18 -8 -34 -4 -37 5 -4 21 -37 36 -75 21 -55 24 -71
14 -77 -10 -7 -9 -9 3 -9 18 0 29 -20 29 -51 0 -15 7 -19 34 -19 l34 0 -17 34
c-10 19 -38 86 -62 150 -24 64 -46 116 -49 116 -3 0 -11 -14 -18 -32z"/>
<path d="M655 1390 l0 -150 30 0 30 0 0 150 0 150 -30 0 -30 0 0 -150z"/>
<path d="M820 1531 c0 -4 -22 -39 -49 -75 l-49 -67 22 -24 c11 -12 35 -46 51
-74 27 -45 34 -51 64 -51 l35 0 -26 28 c-26 27 -108 147 -108 156 0 3 20 30
45 61 30 36 40 55 30 55 -8 0 -15 -4 -15 -9z"/>
<path d="M925 1390 c0 -95 4 -150 10 -150 7 0 9 39 7 108 -6 171 -3 173 52 32
27 -69 52 -129 57 -134 7 -8 31 37 43 85 4 18 2 16 -8 -6 l-14 -30 -10 25 c-5
14 -27 69 -47 123 -34 88 -40 97 -64 97 l-26 0 0 -150z"/>
<path d="M1160 1521 c-13 -25 -13 -34 1 -25 8 5 10 -31 8 -125 l-4 -131 25 0
25 0 0 150 c0 148 0 150 -22 150 -12 0 -27 -9 -33 -19z"/>
<path d="M1365 1507 c-17 -42 -19 -50 -6 -43 11 7 65 -129 57 -143 -3 -5 0
-11 8 -14 7 -3 16 -19 19 -36 6 -27 11 -31 37 -31 30 0 30 0 16 28 -7 15 -35
81 -60 147 -26 66 -49 121 -51 124 -3 2 -12 -12 -20 -32z"/>
<path d="M1480 1520 c0 -19 1 -20 24 -4 14 8 35 14 48 12 22 -3 23 -7 26 -102
1 -55 -1 -119 -6 -143 l-10 -43 32 0 31 0 -3 145 -3 145 23 0 c13 0 34 -7 46
-16 21 -14 22 -14 22 5 0 20 -6 21 -115 21 -109 0 -115 -1 -115 -20z"/>
<path d="M1784 1521 c-35 -21 -64 -83 -64 -137 0 -75 48 -137 115 -150 139
-26 220 164 115 268 -33 34 -43 38 -86 38 -30 0 -61 -7 -80 -19z m118 -2 c59
-32 64 -208 7 -256 -33 -27 -66 -26 -100 5 -31 27 -34 35 -37 101 -5 78 8 123
42 146 24 18 59 19 88 4z"/>
<path d="M2000 1531 c0 -6 4 -12 9 -16 5 -3 33 -66 62 -140 28 -74 55 -135 58
-135 12 0 31 64 21 70 -12 8 -80 184 -80 210 0 16 -6 20 -35 20 -19 0 -35 -4
-35 -9z"/>
<path d="M2223 1498 c-6 -24 -11 -44 -10 -45 2 -1 12 18 24 43 15 30 18 44 9
44 -6 0 -17 -19 -23 -42z"/>
<path d="M2341 1503 c-21 -59 -23 -70 -10 -49 11 17 15 12 41 -54 23 -58 26
-75 16 -81 -10 -7 -9 -9 3 -9 18 0 29 -20 29 -51 0 -15 7 -19 35 -19 34 0 35
1 21 23 -7 12 -36 79 -62 150 -27 70 -51 127 -54 127 -3 0 -12 -17 -19 -37z"/>
<path d="M3335 1507 c-17 -42 -19 -50 -6 -43 11 7 65 -129 57 -143 -3 -5 0
-11 8 -14 7 -3 16 -19 19 -36 6 -27 11 -31 37 -31 l31 0 -16 29 c-8 16 -35 83
-60 147 -25 65 -48 120 -50 123 -3 2 -12 -12 -20 -32z"/>
<path d="M3535 1515 c-50 -49 -27 -97 70 -148 52 -28 60 -36 63 -64 3 -25 -2
-35 -22 -48 -34 -23 -70 -13 -113 30 -26 26 -33 29 -33 15 0 -27 45 -58 94
-65 82 -13 149 39 127 98 -12 30 -36 50 -98 81 -38 19 -55 34 -59 53 -18 70
75 88 115 22 12 -19 20 -25 23 -17 13 35 -36 68 -102 68 -30 0 -47 -6 -65 -25z"/>
<path d="M3790 1520 c-28 -28 -26 -81 3 -107 12 -11 43 -31 68 -46 58 -33 73
-51 65 -81 -14 -55 -97 -54 -143 2 -17 20 -23 23 -23 10 0 -38 76 -75 135 -64
46 9 85 42 85 72 0 42 -18 63 -80 94 -82 41 -108 81 -74 114 28 28 69 20 103
-21 27 -33 31 -35 31 -16 0 56 -125 88 -170 43z"/>
<path d="M4077 1522 c-34 -21 -67 -86 -67 -133 0 -52 39 -121 80 -142 41 -21
97 -18 136 8 32 21 64 88 64 135 0 51 -33 116 -69 134 -39 21 -109 20 -144 -2z
m115 -3 c50 -27 66 -169 25 -230 -63 -94 -157 -34 -157 101 0 109 59 168 132
129z"/>
<path d="M4384 1521 c-35 -21 -64 -83 -64 -134 1 -44 33 -112 63 -132 42 -27
89 -29 141 -7 34 16 46 26 46 43 0 21 0 21 -20 -3 -10 -14 -33 -31 -49 -38
-36 -15 -73 1 -105 43 -29 39 -29 138 0 187 36 62 108 66 144 8 17 -28 20 -30
26 -13 5 13 -1 24 -22 42 -37 30 -115 32 -160 4z"/>
<path d="M4615 1390 l0 -150 30 0 30 0 0 150 0 150 -30 0 -30 0 0 -150z"/>
<path d="M4821 1509 c-6 -18 -8 -35 -3 -38 4 -3 20 -37 35 -75 20 -53 24 -72
14 -78 -8 -5 -7 -8 5 -8 12 0 19 -11 24 -35 6 -32 9 -35 40 -35 33 0 34 1 20
23 -8 12 -36 76 -61 142 -26 66 -50 124 -54 128 -5 5 -14 -6 -20 -24z"/>
<path d="M4940 1520 c0 -20 1 -20 22 -6 12 9 33 16 46 16 l23 0 -3 -145 -3
-145 25 0 25 0 -3 146 -4 147 34 -6 c18 -3 41 -9 52 -13 14 -5 17 -3 14 7 -4
11 -31 15 -116 17 -108 3 -112 2 -112 -18z"/>
<path d="M5198 1483 c2 -32 8 -63 13 -69 5 -6 5 -15 0 -20 -5 -5 -11 -42 -13
-81 -4 -72 -3 -73 22 -73 24 0 25 2 22 55 -6 84 2 105 39 105 17 0 39 -5 50
-10 16 -9 19 -7 19 14 0 23 -2 25 -26 16 -38 -15 -71 -12 -78 6 -3 9 -6 36 -6
61 l0 45 48 -4 c26 -3 55 -8 65 -12 12 -6 17 -4 17 8 0 13 -14 16 -88 16 l-89
0 5 -57z"/>
<path d="M5446 1519 c-56 -44 -25 -105 82 -161 44 -24 52 -32 52 -57 0 -36
-23 -55 -67 -55 -28 0 -43 8 -69 37 -26 28 -34 32 -34 18 0 -41 76 -76 141
-66 50 8 79 38 79 79 0 39 -13 52 -95 98 -48 27 -61 39 -63 61 -9 72 85 79
122 9 14 -25 15 -25 16 -5 0 33 -45 63 -95 63 -28 0 -51 -7 -69 -21z"/>
<path d="M4796 1445 c-9 -26 -7 -32 5 -12 6 10 9 21 6 23 -2 3 -7 -2 -11 -11z"/>
<path d="M1126 1435 c-9 -26 -7 -32 5 -12 6 10 9 21 6 23 -2 3 -7 -2 -11 -11z"/>
<path d="M1336 1435 c-9 -26 -7 -32 5 -12 6 10 9 21 6 23 -2 3 -7 -2 -11 -11z"/>
<path d="M3306 1435 c-9 -26 -7 -32 5 -12 6 10 9 21 6 23 -2 3 -7 -2 -11 -11z"/>
<path d="M2196 1425 c-9 -26 -7 -32 5 -12 6 10 9 21 6 23 -2 3 -7 -2 -11 -11z"/>
<path d="M436 1415 c-9 -26 -7 -32 5 -12 6 10 9 21 6 23 -2 3 -7 -2 -11 -11z"/>
<path d="M2306 1415 c-9 -26 -7 -32 5 -12 6 10 9 21 6 23 -2 3 -7 -2 -11 -11z"/>
<path d="M4776 1395 c-9 -26 -7 -32 5 -12 6 10 9 21 6 23 -2 3 -7 -2 -11 -11z"/>
<path d="M1106 1385 c-9 -26 -7 -32 5 -12 6 10 9 21 6 23 -2 3 -7 -2 -11 -11z"/>
<path d="M2176 1375 c-9 -26 -7 -32 5 -12 6 10 9 21 6 23 -2 3 -7 -2 -11 -11z"/>
<path d="M411 1349 c-14 -40 -14 -42 2 -28 10 10 21 59 12 59 -2 0 -8 -14 -14
-31z"/>
<path d="M2281 1349 c-14 -40 -14 -42 2 -28 10 10 21 59 12 59 -2 0 -8 -14
-14 -31z"/>
<path d="M1285 1305 c-21 -44 -27 -65 -18 -65 7 0 13 5 13 10 0 6 7 27 16 48
16 35 27 72 21 72 -1 0 -16 -30 -32 -65z"/>
<path d="M4738 1300 c-20 -46 -23 -60 -12 -60 8 0 14 9 14 21 0 21 17 60 31
69 4 3 5 11 1 17 -5 7 -18 -11 -34 -47z"/>
<path d="M3270 1340 c0 -5 5 -10 11 -10 5 0 7 5 4 10 -3 6 -8 10 -11 10 -2 0
-4 -4 -4 -10z"/>
<path d="M470 1330 c8 -5 20 -10 25 -10 6 0 3 5 -5 10 -8 5 -19 10 -25 10 -5
0 -3 -5 5 -10z"/>
<path d="M2340 1330 c8 -5 20 -10 25 -10 6 0 3 5 -5 10 -8 5 -19 10 -25 10 -5
0 -3 -5 5 -10z"/>
<path d="M4820 1330 c8 -5 20 -10 25 -10 6 0 3 5 -5 10 -8 5 -19 10 -25 10 -5
0 -3 -5 5 -10z"/>
<path d="M3243 1279 c-14 -26 -17 -39 -9 -39 11 0 40 69 33 76 -1 2 -12 -15
-24 -37z"/>
<path d="M376 1270 c-14 -25 -15 -30 -3 -30 8 0 17 12 20 28 7 36 4 37 -17 2z"/>
<path d="M2248 1269 c-13 -22 -14 -29 -4 -29 8 0 16 12 19 28 7 36 5 36 -15 1z"/>
<path d="M5355 1261 c-6 -5 -19 -11 -30 -14 -11 -3 -4 -5 18 -6 27 -1 37 3 37
14 0 17 -11 20 -25 6z"/>
</g>
</svg>
